<?xml version="1.0" encoding="utf-8"?>
<!-- Generator: Adobe Illustrator 19.0.0, SVG Export Plug-In . SVG Version: 6.00 Build 0)  -->
<svg version="1.1" id="LOGO_CLEAN" xmlns="http://www.w3.org/2000/svg" xmlns:xlink="http://www.w3.org/1999/xlink" x="0px" y="0px"
	 viewBox="0 0 2000 2000" style="enable-background:new 0 0 2000 2000;" xml:space="preserve">
<style type="text/css">
	.st0{fill:url(#outer_glow_2_);}
	.st1{fill:url(#inner_glow_2_);}
	.st2{fill:#000A2F;}
</style>
<linearGradient id="outer_glow_2_" gradientUnits="userSpaceOnUse" x1="308.7621" y1="796.9366" x2="1691.2571" y2="796.9366">
	<stop  offset="8.271665e-007" style="stop-color:#3D82FF"/>
	<stop  offset="0.335" style="stop-color:#68C1EF"/>
	<stop  offset="1" style="stop-color:#92FEE0"/>
</linearGradient>
<polygon id="outer_glow_1_" class="st0" points="404.3,675.3 999.8,331.4 1595.6,675.6 1595.8,1317.2 1691.3,1372.4 1691,620.5 
	999.8,221.1 308.8,620.1 309,1372.8 404.5,1317.6 "/>
<linearGradient id="inner_glow_2_" gradientUnits="userSpaceOnUse" x1="443.7626" y1="835.9078" x2="1556.2566" y2="835.9078">
	<stop  offset="1.445109e-006" style="stop-color:#FF7A62"/>
	<stop  offset="0.335" style="stop-color:#E87089"/>
	<stop  offset="1" style="stop-color:#D368B6"/>
</linearGradient>
<polygon id="inner_glow_1_" class="st1" points="501.4,731.4 999.8,443.7 1498.4,731.7 1498.6,1261.1 1556.3,1294.4 1556.1,698.4 
	999.8,377 443.8,698.1 443.9,1294.8 501.6,1261.5 "/>
<polygon id="base_1_" class="st2" points="1499,1307.5 1000.6,1595.3 502,1307.2 502,1307 343,1398.4 343,1398.6 1000.1,1778.1 
	1657,1399 1657,1398.7 1499,1307.2 "/>
<polygon id="E_plain" points="960.7,1463.8 960.6,1463.8 960.6,1384.2 839.6,1314.3 664.5,1213.1 664.6,1149.2 839.6,1250.3 
	839.5,1148.3 664.6,1047.2 664.6,983.2 839.5,1084.2 960.5,1154.1 960.5,1041.8 839.7,971.9 665,870.8 665,870.7 570,815.9 
	570,1267.9 960.8,1493.8 "/>
<polygon id="H_plain_v2" points="1248.2,836.3 1386.2,756.5 1286.5,698.8 1148.5,778.7 1193.7,805 1193.6,805 1148.4,778.7 
	1148.5,778.6 950.8,664.3 930.6,676 930.6,676 950.8,664.3 1088.8,584.6 998.8,532.6 998.2,532.2 612.9,754.7 613.5,755 644.6,773 
	703.6,807 879.8,705.3 879.8,705.3 857.4,718.2 1055,832.4 901,921.2 999,978 1000.5,978.8 1248,836.3 1231.6,827 1231.8,827 "/>
<polygon id="X_plain" points="1423.1,845.7 1430.4,830.2 1430.4,816.9 1374.6,849.2 1326.9,876.7 1224.9,1086.4 1124.8,993.4 
	1037.7,1043.7 1181,1176.7 1032.6,1481.6 1032.6,1498 1144.6,1433.3 1240.1,1231.7 1337.3,1322 1424.4,1271.8 1283.3,1140.6 "/>
</svg>
